<svg width="512" height="512" viewBox="0 0 512 512" fill="none" xmlns="http://www.w3.org/2000/svg">
<g clip-path="url(#clip0_409_1907)">
<path d="M0 0C168.96 0 337.92 0 512 0C512 168.96 512 337.92 512 512C343.04 512 174.08 512 0 512C0 343.04 0 174.08 0 0Z" fill="#36373D"/>
<path d="M0 256C57.42 256 114.84 256 174 256C174 282.4 174 308.8 174 336C190.17 336 206.34 336 223 336C223 309.93 223 283.86 223 257C227.199 260.499 229.974 262.942 233.188 267.062C237.318 272.237 241.687 277.071 246.227 281.883C246.881 282.635 246.881 282.635 247.549 283.403C248.991 285.054 248.991 285.054 250.774 286.534C256.648 292.398 256.781 298.234 256.874 306.086C256.871 309.069 256.833 312.051 256.795 315.033C256.793 317.217 256.793 319.401 256.797 321.585C256.799 327.419 256.758 333.252 256.709 339.086C256.669 344.566 256.667 350.045 256.662 355.525C256.626 371.538 256.528 387.55 256.438 403.562C256.293 439.347 256.149 475.131 256 512C171.52 512 87.04 512 0 512C0 427.52 0 343.04 0 256Z" fill="#2E2E34"/>
<path d="M384 256C426.24 256 468.48 256 512 256C512 340.48 512 424.96 512 512C469.76 512 427.52 512 384 512C384 427.52 384 343.04 384 256Z" fill="#26262B"/>
<path d="M0 0C84.48 0 168.96 0 256 0C256 42.24 256 84.48 256 128C171.52 128 87.04 128 0 128C0 85.76 0 43.52 0 0Z" fill="#3F3F46"/>
<path d="M174 171C189.51 171 205.02 171 221 171C225.455 176.445 225.455 176.445 230 182C233.374 185.749 233.374 185.749 236.762 189.484C239.802 192.901 242.665 196.45 245.543 200.004C251.4 207.147 257.461 214.127 263.562 221.062C271.894 230.547 279.92 240.304 288 250C288.33 223.93 288.66 197.86 289 171C305.17 171 321.34 171 338 171C338 225.45 338 279.9 338 336C322.49 336 306.98 336 291 336C288.03 332.37 285.06 328.74 282 325C279.845 322.467 277.685 319.944 275.5 317.438C274.67 316.482 274.67 316.482 273.823 315.507C270.67 311.886 267.481 308.302 264.25 304.75C261.261 301.457 258.416 298.087 255.625 294.625C252.38 290.612 249.013 286.776 245.5 283C241.225 278.404 237.185 273.673 233.266 268.766C230.265 265.103 227.118 261.563 224 258C223.67 283.74 223.34 309.48 223 336C206.83 336 190.66 336 174 336C174 281.55 174 227.1 174 171Z" fill="#39B9CF"/>
<path d="M256 384C298.24 384 340.48 384 384 384C384 426.24 384 468.48 384 512C341.76 512 299.52 512 256 512C256 469.76 256 427.52 256 384Z" fill="#3F3F46"/>
<path d="M0 384C42.24 384 84.48 384 128 384C128 426.24 128 468.48 128 512C85.76 512 43.52 512 0 512C0 469.76 0 427.52 0 384Z" fill="#3F3F46"/>
<path d="M384 128C426.24 128 468.48 128 512 128C512 170.24 512 212.48 512 256C469.76 256 427.52 256 384 256C384 213.76 384 171.52 384 128Z" fill="#3F3F46"/>
<path d="M256 0C298.24 0 340.48 0 384 0C384 42.24 384 84.48 384 128C341.76 128 299.52 128 256 128C256 85.76 256 43.52 256 0Z" fill="#2E2E34"/>
</g>
<defs>
<clipPath id="clip0_409_1907">
<rect width="512" height="512" fill="white"/>
</clipPath>
</defs>
</svg>
