<svg width="260" height="42" viewBox="0 0 260 42" fill="none" xmlns="http://www.w3.org/2000/svg">
<path d="M27 3.15625V42H19.9375L5.8125 9.75V39.375C5.8125 40.1042 5.55208 40.7292 5.03125 41.25C4.53125 41.75 3.91667 42 3.1875 42C2.45833 42 1.83333 41.75 1.3125 41.25C0.8125 40.7292 0.5625 40.1042 0.5625 39.375V0.46875H7.53125L21.6875 32.6562V3.15625C21.6875 2.42708 21.9479 1.80208 22.4688 1.28125C23.0104 0.739583 23.6458 0.46875 24.375 0.46875C25.1042 0.46875 25.7188 0.729167 26.2188 1.25C26.7396 1.77083 27 2.40625 27 3.15625ZM65.6875 21.3125V32.4062C65.6875 34.7604 64.5729 36.9375 62.3438 38.9375C60.1354 40.9375 57.8542 41.9375 55.5 41.9375H49.3438C46.9479 41.9375 44.6562 40.9271 42.4688 38.9062C40.2812 36.8646 39.1875 34.6979 39.1875 32.4062V21.3125C39.1875 19.0208 40.25 16.8646 42.375 14.8438C44.5208 12.8021 46.8438 11.7812 49.3438 11.7812H55.5C57.8542 11.7396 60.1354 12.7188 62.3438 14.7188C64.5729 16.7188 65.6875 18.9167 65.6875 21.3125ZM44.5 21.5312V32.1562C44.5 33.1146 44.8438 33.875 45.5312 34.4375L47.5 36.125C47.9375 36.5 48.5521 36.6875 49.3438 36.6875H55.4375C56.3333 36.6875 57.1458 36.3646 57.875 35.7188L59.4688 34.3125C60.1146 33.8125 60.4375 33.1146 60.4375 32.2188V21.5938C60.4375 20.5521 60.1146 19.7812 59.4688 19.2812L57.625 17.8125C57 17.2917 56.2708 17.0312 55.4375 17.0312H50C48.8125 17.0312 47.8958 17.3125 47.25 17.875L45.4688 19.4062C44.8229 19.9479 44.5 20.6562 44.5 21.5312ZM83.875 0.46875H97.5312C99.1979 0.46875 100.771 1.17708 102.25 2.59375C103.75 3.98958 104.5 5.6875 104.5 7.6875C104.5 8.4375 104.229 9.07292 103.688 9.59375C103.167 10.1146 102.583 10.375 101.938 10.375C101.042 10.375 100.427 10.1771 100.094 9.78125C99.7604 9.36458 99.4375 8.60417 99.125 7.5C98.8333 6.39583 98.1667 5.84375 97.125 5.84375H84.1562C83.5312 5.84375 83.2188 6.04167 83.2188 6.4375C83.2188 6.6875 83.3542 6.97917 83.625 7.3125L103.094 32.2188C104.031 33.4271 104.5 34.7188 104.5 36.0938C104.5 37.6562 103.927 39.0312 102.781 40.2188C101.656 41.4062 100.396 42 99 42H84.8438C82.9688 42 81.3333 41.2917 79.9375 39.875C78.5625 38.4375 77.875 36.8646 77.875 35.1562C77.875 33.1979 78.7917 32.2188 80.625 32.2188C81.3333 32.2188 81.9375 32.4792 82.4375 33C82.9375 33.5 83.1875 34.0938 83.1875 34.7812C83.1875 35.3438 83.375 35.8125 83.75 36.1875C84.1458 36.5625 84.6354 36.75 85.2188 36.75H98.2812C98.8438 36.75 99.125 36.5312 99.125 36.0938C99.125 35.8854 98.9896 35.6146 98.7188 35.2812L79.2812 10.375C78.3646 9.1875 77.9062 7.89583 77.9062 6.5C77.9062 4.875 78.4896 3.46875 79.6562 2.28125C80.8229 1.07292 82.2292 0.46875 83.875 0.46875ZM116.562 7.625V0.53125H143.062V7.6875C143.062 8.41667 142.802 9.04167 142.281 9.5625C141.76 10.0625 141.146 10.3125 140.438 10.3125C139.708 10.3125 139.073 10.0521 138.531 9.53125C138.01 9.01042 137.75 8.39583 137.75 7.6875V5.78125H132.438V39.375C132.438 40.1042 132.177 40.7292 131.656 41.25C131.135 41.75 130.521 42 129.812 42C129.062 42 128.427 41.75 127.906 41.25C127.385 40.7292 127.125 40.1042 127.125 39.375V5.78125H121.812V7.625C121.812 8.35417 121.552 8.97917 121.031 9.5C120.531 10 119.917 10.25 119.188 10.25C118.458 10.25 117.833 10 117.312 9.5C116.812 8.97917 116.562 8.35417 116.562 7.625ZM174.75 4.3125L180.531 16.0938C181.344 17.6979 181.75 19.4375 181.75 21.3125C181.75 23.1458 181.344 24.875 180.531 26.5L174.75 38.1562C173.521 40.7188 171.438 42 168.5 42C167.104 42 165.844 41.6354 164.719 40.9062C163.615 40.1771 162.781 39.2604 162.219 38.1562L156.406 26.5C155.635 24.9792 155.25 23.25 155.25 21.3125C155.25 19.375 155.635 17.6354 156.406 16.0938L162.219 4.3125C163.531 1.75 165.625 0.46875 168.5 0.46875C171.417 0.46875 173.5 1.75 174.75 4.3125ZM166.75 6.9375L161.312 18C160.812 19.1042 160.562 20.1875 160.562 21.25C160.562 22.3958 160.812 23.4896 161.312 24.5312L166.906 35.7188C167.198 36.4062 167.729 36.75 168.5 36.75C169.167 36.75 169.677 36.4062 170.031 35.7188L175.656 24.5312C176.177 23.4271 176.438 22.3333 176.438 21.25C176.438 20.1042 176.177 19.0208 175.656 18L170.156 6.9375C169.802 6.125 169.25 5.71875 168.5 5.71875C167.75 5.71875 167.167 6.125 166.75 6.9375ZM194.062 39.375V0.46875H212.625C214.771 0.46875 216.615 1.25 218.156 2.8125C219.719 4.375 220.5 6.23958 220.5 8.40625V11.4062C220.5 13.5938 219.729 15.4688 218.188 17.0312C216.646 18.5729 214.792 19.3438 212.625 19.3438H209.281L220.031 37.7812C220.365 38.3229 220.531 38.8646 220.531 39.4062C220.531 40.1146 220.26 40.7292 219.719 41.25C219.177 41.75 218.562 42 217.875 42C216.833 42 216.042 41.5312 215.5 40.5938L203.156 19.3438H199.375V39.375C199.375 40.1042 199.104 40.7292 198.562 41.25C198.042 41.75 197.417 42 196.688 42C195.958 42 195.333 41.75 194.812 41.25C194.312 40.7292 194.062 40.1042 194.062 39.375ZM199.312 14.0938H212.625C213.354 14.0938 213.969 13.8438 214.469 13.3438C214.99 12.8229 215.25 12.1979 215.25 11.4688V8.40625C215.25 7.67708 214.99 7.0625 214.469 6.5625C213.969 6.04167 213.354 5.78125 212.625 5.78125H199.312V14.0938ZM256.5 5.78125H237.938V18.5625H245.938C246.646 18.5625 247.26 18.8229 247.781 19.3438C248.302 19.8646 248.562 20.4792 248.562 21.1875C248.562 21.9375 248.302 22.5729 247.781 23.0938C247.281 23.6146 246.667 23.875 245.938 23.875H237.938V36.75H256.562C257.271 36.75 257.885 37.0104 258.406 37.5312C258.927 38.0312 259.188 38.6458 259.188 39.375C259.188 40.1042 258.917 40.7292 258.375 41.25C257.854 41.75 257.229 42 256.5 42H232.688V0.46875H256.5C257.229 0.46875 257.854 0.739583 258.375 1.28125C258.917 1.80208 259.188 2.42708 259.188 3.15625C259.188 3.86458 258.917 4.47917 258.375 5C257.854 5.52083 257.229 5.78125 256.5 5.78125Z" fill="#3ABBD1"/>
</svg>
