<svg width="324" height="70" viewBox="0 0 324 70" fill="none" xmlns="http://www.w3.org/2000/svg">
<path d="M33.375 6.44531V55H24.5469L6.89062 14.6875V51.7188C6.89062 52.6302 6.5651 53.4115 5.91406 54.0625C5.28906 54.6875 4.52083 55 3.60938 55C2.69792 55 1.91667 54.6875 1.26562 54.0625C0.640625 53.4115 0.328125 52.6302 0.328125 51.7188V3.08594H9.03906L26.7344 43.3203V6.44531C26.7344 5.53385 27.0599 4.7526 27.7109 4.10156C28.388 3.42448 29.1823 3.08594 30.0938 3.08594C31.0052 3.08594 31.7734 3.41146 32.3984 4.0625C33.0495 4.71354 33.375 5.50781 33.375 6.44531ZM81.7344 29.1406V43.0078C81.7344 45.9505 80.3411 48.6719 77.5547 51.1719C74.7943 53.6719 71.9427 54.9219 69 54.9219H61.3047C58.3099 54.9219 55.4453 53.6589 52.7109 51.1328C49.9766 48.5807 48.6094 45.8724 48.6094 43.0078V29.1406C48.6094 26.276 49.9375 23.5807 52.5938 21.0547C55.276 18.5026 58.1797 17.2266 61.3047 17.2266H69C71.9427 17.1745 74.7943 18.3984 77.5547 20.8984C80.3411 23.3984 81.7344 26.1458 81.7344 29.1406ZM55.25 29.4141V42.6953C55.25 43.8932 55.6797 44.8438 56.5391 45.5469L59 47.6562C59.5469 48.125 60.3151 48.3594 61.3047 48.3594H68.9219C70.0417 48.3594 71.0573 47.9557 71.9688 47.1484L73.9609 45.3906C74.7682 44.7656 75.1719 43.8932 75.1719 42.7734V29.4922C75.1719 28.1901 74.7682 27.2266 73.9609 26.6016L71.6562 24.7656C70.875 24.1146 69.9635 23.7891 68.9219 23.7891H62.125C60.6406 23.7891 59.4948 24.1406 58.6875 24.8438L56.4609 26.7578C55.6536 27.4349 55.25 28.3203 55.25 29.4141ZM120.094 55H113.531C110.823 55 108.492 54.0365 106.539 52.1094C104.586 50.1823 103.609 47.8646 103.609 45.1562V23.8672H100.25C99.3385 23.8672 98.5573 23.5547 97.9062 22.9297C97.2812 22.3047 96.9688 21.5234 96.9688 20.5859C96.9688 19.6745 97.2812 18.9062 97.9062 18.2812C98.5573 17.6302 99.3385 17.3047 100.25 17.3047H103.688V9.25781C103.688 8.34635 104 7.57812 104.625 6.95312C105.276 6.30208 106.057 5.97656 106.969 5.97656C107.828 5.97656 108.583 6.30208 109.234 6.95312C109.911 7.60417 110.25 8.3724 110.25 9.25781V17.3047H123.453C124.339 17.3047 125.107 17.6302 125.758 18.2812C126.409 18.9323 126.734 19.7005 126.734 20.5859C126.734 21.4974 126.409 22.2786 125.758 22.9297C125.107 23.5547 124.339 23.8672 123.453 23.8672H110.172V45.1562C110.172 46.0417 110.497 46.8099 111.148 47.4609C111.826 48.112 112.62 48.4375 113.531 48.4375H119.938C121.682 48.4375 122.841 47.5 123.414 45.625C123.987 43.724 125.094 42.7734 126.734 42.7734C127.698 42.7734 128.479 43.099 129.078 43.75C129.703 44.375 130.016 45.1693 130.016 46.1328C130.016 48.112 129.078 50.0911 127.203 52.0703C125.354 54.0234 122.984 55 120.094 55ZM145.328 51.7188V6.36719C145.328 5.48177 145.641 4.72656 146.266 4.10156C146.917 3.47656 147.698 3.16406 148.609 3.16406C149.521 3.16406 150.289 3.48958 150.914 4.14062C151.565 4.76562 151.891 5.53385 151.891 6.44531V23.0078L157.164 19.5703C159.56 18.0599 161.695 17.3047 163.57 17.3047H167.633C170.315 17.3047 172.62 18.2682 174.547 20.1953C176.474 22.0964 177.477 24.4141 177.555 27.1484L178.375 51.7188C178.401 52.6302 178.089 53.4115 177.438 54.0625C176.786 54.6875 176.005 55 175.094 55C174.182 55 173.414 54.6745 172.789 54.0234C172.164 53.3464 171.839 52.5781 171.812 51.7188L170.992 27.0703C170.966 26.1849 170.628 25.4167 169.977 24.7656C169.326 24.1146 168.544 23.7891 167.633 23.7891H163.961C163.128 23.7891 162.216 24.1146 161.227 24.7656L151.891 30.8594V51.7188C151.891 52.6302 151.565 53.4115 150.914 54.0625C150.289 54.6875 149.521 55 148.609 55C147.698 55 146.917 54.6875 146.266 54.0625C145.641 53.4115 145.328 52.6302 145.328 51.7188ZM206.891 0.195312H210.328C211.24 0.195312 212.008 0.520833 212.633 1.17188C213.284 1.79688 213.609 2.5651 213.609 3.47656V6.28906C213.609 7.20052 213.284 7.99479 212.633 8.67188C212.008 9.32292 211.24 9.64844 210.328 9.64844H206.812C205.875 9.64844 205.081 9.3099 204.43 8.63281C203.805 7.95573 203.505 7.20052 203.531 6.36719L203.609 3.47656C203.609 2.5651 203.922 1.79688 204.547 1.17188C205.198 0.520833 205.979 0.195312 206.891 0.195312ZM220.25 54.9219H200.25C199.339 54.9219 198.557 54.6094 197.906 53.9844C197.281 53.3333 196.969 52.5521 196.969 51.6406C196.969 50.7552 197.281 49.987 197.906 49.3359C198.557 48.6849 199.339 48.3594 200.25 48.3594H206.969V23.8672H200.328C199.417 23.8672 198.635 23.5417 197.984 22.8906C197.359 22.2396 197.047 21.4714 197.047 20.5859C197.047 19.6745 197.359 18.8932 197.984 18.2422C198.635 17.5651 199.417 17.2266 200.328 17.2266H210.328C211.24 17.2266 212.008 17.5651 212.633 18.2422C213.284 18.8932 213.609 19.6745 213.609 20.5859V48.3594H220.172C221.083 48.3594 221.865 48.6849 222.516 49.3359C223.193 49.9609 223.531 50.7292 223.531 51.6406C223.531 52.5521 223.206 53.3333 222.555 53.9844C221.904 54.6094 221.135 54.9219 220.25 54.9219ZM257.633 24.9219L248.688 30.7422V51.7188C248.688 52.6042 248.362 53.3724 247.711 54.0234C247.06 54.6745 246.292 55 245.406 55C244.521 55 243.753 54.6745 243.102 54.0234C242.451 53.3724 242.125 52.6042 242.125 51.7188V20.5859C242.125 19.6745 242.438 18.8932 243.062 18.2422C243.714 17.5651 244.495 17.2266 245.406 17.2266C246.292 17.2266 247.06 17.5651 247.711 18.2422C248.362 18.8932 248.688 19.6745 248.688 20.5859V22.7734L254.664 19.1406C256.669 17.8646 258.935 17.2266 261.461 17.2266H264.508C267.112 17.2266 269.365 18.151 271.266 20C273.167 21.849 274.169 24.1276 274.273 26.8359L275.172 51.7188C275.198 52.6042 274.885 53.3724 274.234 54.0234C273.583 54.6745 272.802 55 271.891 55C271.031 55 270.276 54.7135 269.625 54.1406C268.974 53.5417 268.635 52.7344 268.609 51.7188L267.633 27.2266C267.555 24.9349 266.357 23.7891 264.039 23.7891H260.836C259.846 23.7891 258.779 24.1667 257.633 24.9219ZM311.109 69.0625H296.891C295.979 69.0625 295.198 68.75 294.547 68.125C293.922 67.5 293.609 66.7188 293.609 65.7812C293.609 64.8698 293.922 64.1016 294.547 63.4766C295.198 62.8516 295.979 62.5391 296.891 62.5391H311.109C311.969 62.5391 312.776 62.2135 313.531 61.5625L315.758 59.6484C316.513 59.0755 316.891 58.3203 316.891 57.3828V47.3828C313.818 50.4818 310.823 52.0312 307.906 52.0312H302.867C300.263 52.0312 297.919 51.1328 295.836 49.3359L293.375 47.1484C292.568 46.4714 291.865 45.4818 291.266 44.1797C290.693 42.8776 290.406 41.6016 290.406 40.3516V29.4922C290.406 27.9557 290.693 26.4974 291.266 25.1172C291.865 23.737 292.568 22.7083 293.375 22.0312L296.07 19.7266C297.997 18.0599 300.263 17.2266 302.867 17.2266H307.594C310.172 17.2266 312.516 18.138 314.625 19.9609L316.891 21.875L316.812 20.5859C316.812 19.7005 317.138 18.9323 317.789 18.2812C318.44 17.6302 319.208 17.3047 320.094 17.3047C321.005 17.3047 321.786 17.6302 322.438 18.2812C323.115 18.9062 323.453 19.6745 323.453 20.5859V57.3828C323.453 60.1693 322.333 62.5521 320.094 64.5312L317.438 66.8359C316.76 67.4349 315.797 67.9557 314.547 68.3984C313.323 68.8411 312.177 69.0625 311.109 69.0625ZM307.359 23.7891H302.945C301.982 23.7891 301.057 24.1667 300.172 24.9219L298.141 26.6016C297.359 27.2526 296.969 28.138 296.969 29.2578V40.1953C296.969 41.0807 297.398 41.9141 298.258 42.6953L300.406 44.6094C301.083 45.1823 301.799 45.4688 302.555 45.4688H307.906C308.688 45.4688 309.547 45.0781 310.484 44.2969L315.68 39.8828C316.487 39.1797 316.891 38.3203 316.891 37.3047V32.3438C316.891 31.1458 316.435 30.1693 315.523 29.4141L310.172 24.8438C309.417 24.1406 308.479 23.7891 307.359 23.7891Z" fill="#3ABBD1"/>
</svg>
