<svg width="52" height="50" viewBox="0 0 52 50" fill="none" xmlns="http://www.w3.org/2000/svg">
<path d="M37.0385 0.876135C37.3517 0.957194 37.6649 1.03803 37.9782 1.11864C38.6305 1.28718 39.2821 1.45778 39.9334 1.63005C40.763 1.8494 41.5936 2.06444 42.4246 2.27804C43.0701 2.44428 43.7151 2.61231 44.3599 2.78093C44.6659 2.8608 44.972 2.94025 45.2782 3.01923C49.7007 4.16412 49.7008 4.16412 50.9939 5.71683C51.9312 7.32202 52.0048 8.75285 51.9951 10.5797C51.9967 10.9711 51.9967 10.9711 51.9985 11.3704C52.0008 12.0815 52.0003 12.7925 51.9982 13.5037C51.9966 14.2503 51.9981 14.997 51.9991 15.7437C52.0003 16.9969 51.9987 18.2502 51.9957 19.5034C51.9922 20.9496 51.9933 22.3957 51.9969 23.8419C51.9998 25.0869 52.0002 26.3319 51.9985 27.5769C51.9975 28.319 51.9974 29.0611 51.9995 29.8033C52.0011 30.6307 51.9986 31.458 51.9951 32.2855C51.9964 32.5295 51.9977 32.7736 51.999 33.025C51.986 34.6529 51.8384 35.7609 50.7615 37.0284C49.4152 38.2013 48.5202 38.2883 46.7749 38.1706C45.8778 38.0259 45.0058 37.8147 44.1262 37.5859C43.9007 37.5327 43.6753 37.4796 43.4431 37.4248C42.2221 37.1142 41.3257 36.8708 40.5677 35.7774C40.3145 34.8312 40.2908 33.8635 40.2466 32.8888C40.2338 32.6202 40.2338 32.6202 40.2206 32.3462C40.1927 31.7541 40.1661 31.1618 40.1396 30.5696C40.1253 30.2644 40.1253 30.2644 40.1107 29.9531C39.9958 27.4934 39.9121 25.0358 39.8804 22.5734C39.8756 22.2358 39.8756 22.2358 39.8706 21.8914C39.8554 20.8014 39.8446 19.7118 39.8411 18.6217C39.8208 16.2849 39.7067 14.3361 38.4674 12.2946C37.8608 11.7132 37.2406 11.366 36.5009 10.9757C36.6422 11.191 36.7834 11.4064 36.929 11.6283C37.0811 11.902 37.228 12.1787 37.3704 12.4578C37.4436 12.5983 37.5167 12.7388 37.592 12.8835C38.1101 14.1851 38.0303 15.5824 38.0276 16.9619C38.0281 17.3066 38.0281 17.3066 38.0286 17.6583C38.0291 18.4222 38.0277 19.1861 38.026 19.95C38.0255 20.2125 38.025 20.4751 38.0245 20.7456C38.0209 22.471 38.0134 24.1963 38.0041 25.9216C38.0007 26.5566 37.9977 27.1916 37.9951 27.8265C37.9877 29.6374 37.9771 31.4481 37.9591 33.2589C37.9512 34.059 37.9446 34.859 37.9413 35.6592C37.9375 36.5579 37.9269 37.4564 37.9156 38.355C37.9153 38.6226 37.9151 38.8902 37.9148 39.1658C37.8901 40.6192 37.7967 41.5641 36.929 42.7393C35.7518 43.8461 34.8835 44.1264 33.3084 44.095C32.1755 44.0086 31.099 43.7548 29.9994 43.4736C29.7739 43.4223 29.5485 43.3709 29.3163 43.3181C27.4946 42.8604 27.4946 42.8604 26.8339 42.1359C25.9601 40.5751 26.1663 38.5946 26.1198 36.8448C26.1111 36.5419 26.1024 36.239 26.0935 35.9362C26.0703 35.1384 26.0481 34.3406 26.0262 33.5428C26.0043 32.7491 25.9818 31.9555 25.9593 31.1619C25.9549 31.0071 25.9505 30.8523 25.946 30.6927C25.9113 29.4732 25.8741 28.2538 25.836 27.0343C25.8077 26.1146 25.7863 25.1948 25.7678 24.2748C25.756 23.8326 25.744 23.3904 25.7319 22.9482C25.7286 22.6596 25.7286 22.6596 25.7252 22.3652C25.6746 20.7836 25.2876 19.2904 24.2929 18.0446C24.1497 17.9285 24.0065 17.8124 23.859 17.6928C23.7153 17.5711 23.5715 17.4494 23.4234 17.324C23.0051 17.01 23.0051 17.01 22.3741 17.0673C22.5021 17.2064 22.6301 17.3455 22.762 17.4888C23.8964 19.103 23.9661 20.7934 23.9555 22.7243C23.9566 22.9786 23.9577 23.2328 23.9589 23.4948C23.9617 24.3305 23.9598 25.166 23.9577 26.0017C23.9581 26.5849 23.9587 27.1682 23.9595 27.7514C23.9607 28.9717 23.9592 30.192 23.9561 31.4124C23.9526 32.8196 23.9537 34.2268 23.9573 35.6341C23.9602 36.8466 23.9606 38.059 23.9589 39.2715C23.9579 39.9938 23.958 40.7161 23.9599 41.4384C23.9615 42.2439 23.959 43.0493 23.9555 43.8548C23.9568 44.0916 23.9581 44.3284 23.9594 44.5724C23.9468 46.1088 23.839 47.464 22.808 48.6738C22.6604 48.793 22.5128 48.9122 22.3607 49.035C22.2125 49.1581 22.0644 49.2812 21.9117 49.408C20.8823 50.1745 19.7516 50.0113 18.5213 49.9188C17.3291 49.7023 16.1631 49.4017 14.9913 49.0927C14.6574 49.0068 14.3234 48.9211 13.9894 48.8356C13.2941 48.6569 12.5995 48.476 11.9052 48.2935C11.0181 48.0604 10.1298 47.8324 9.24103 47.606C8.55305 47.4302 7.86572 47.2519 7.17855 47.0729C6.85121 46.9878 6.5237 46.9035 6.196 46.82C5.73813 46.7028 5.2812 46.5823 4.82437 46.461C4.565 46.3934 4.30562 46.3257 4.03839 46.256C2.96754 45.8762 2.09382 45.2899 1.35778 44.4118C1.20755 44.2381 1.20755 44.2381 1.05427 44.0608C0.0566862 42.5526 0.0201569 41.2421 0.0271734 39.4649C0.0257043 39.2044 0.0242353 38.9438 0.0227218 38.6754C0.019486 37.9642 0.0191301 37.2532 0.0203539 36.542C0.0210177 35.9468 0.0197107 35.3516 0.0184204 34.7563C0.0154189 33.3514 0.0157442 31.9464 0.0181853 30.5414C0.0206423 29.0953 0.0176281 27.6494 0.0118916 26.2033C0.00713962 24.9585 0.00573156 23.7137 0.00698604 22.4689C0.00770528 21.7269 0.0072038 20.9849 0.00350772 20.2429C0.000318074 19.4149 0.00260121 18.5871 0.00627078 17.7591C0.00420142 17.5155 0.00213207 17.2719 0 17.0209C0.0152571 15.3742 0.254386 14.193 1.35862 12.9209C1.54362 12.7724 1.54362 12.7724 1.73236 12.6209C1.85624 12.518 1.98013 12.4151 2.10777 12.3091C3.16739 11.5869 4.57138 11.7364 5.78016 11.9312C6.31686 12.0495 6.84775 12.182 7.3794 12.3218C7.57116 12.3701 7.76292 12.4184 7.96049 12.4681C8.56505 12.6209 9.16867 12.7772 9.77233 12.9337C10.1853 13.0387 10.5983 13.1435 11.0114 13.2481C12.0171 13.5033 13.022 13.7615 14.0264 14.0215C14.0295 13.8767 14.0327 13.732 14.0359 13.5829C14.0519 12.9222 14.0726 12.2617 14.0933 11.6011C14.0981 11.3734 14.103 11.1457 14.1079 10.9111C14.1615 9.3484 14.3451 8.33053 15.3909 7.12757C16.5217 6.11504 17.2993 5.84265 18.787 5.88181C20.5291 6.07664 22.2109 6.58274 23.8991 7.04598C24.2859 7.14924 24.6727 7.25221 25.0597 7.3549C27.845 8.0995 27.845 8.0995 28.3673 8.36494C28.3628 8.21588 28.3583 8.06682 28.3537 7.91325C28.3358 7.22987 28.3247 6.54654 28.3138 5.86301C28.3066 5.62855 28.2994 5.3941 28.292 5.15254C28.2728 3.55135 28.4174 2.2604 29.541 1.06528C31.6439 -0.809767 34.6081 0.229766 37.0385 0.876135Z" fill="#3F3F46"/>
</svg>
