<svg width="35" height="35" viewBox="0 0 35 35" fill="none" xmlns="http://www.w3.org/2000/svg">
<g clip-path="url(#clip0_336_595)">
<path d="M4.37492 19.6875L3.28117 17.5H10.9374L10.0624 15.3125H2.91659L1.82284 13.125H13.1978L12.3228 10.9375H1.61867L0.364502 8.75004H5.83325C5.83325 7.97649 6.14054 7.23463 6.68752 6.68765C7.23451 6.14066 7.97637 5.83337 8.74992 5.83337H26.2499V11.6667H30.6249L34.9999 17.5V24.7917H32.0833C32.0833 25.952 31.6223 27.0648 30.8018 27.8853C29.9814 28.7058 28.8686 29.1667 27.7083 29.1667C26.5479 29.1667 25.4351 28.7058 24.6147 27.8853C23.7942 27.0648 23.3333 25.952 23.3333 24.7917H17.4999C17.4999 25.952 17.039 27.0648 16.2185 27.8853C15.398 28.7058 14.2852 29.1667 13.1249 29.1667C11.9646 29.1667 10.8518 28.7058 10.0313 27.8853C9.21086 27.0648 8.74992 25.952 8.74992 24.7917H5.83325V19.6875H4.37492ZM27.7083 26.9792C28.2884 26.9792 28.8448 26.7487 29.255 26.3385C29.6653 25.9283 29.8958 25.3719 29.8958 24.7917C29.8958 24.2115 29.6653 23.6551 29.255 23.2449C28.8448 22.8347 28.2884 22.6042 27.7083 22.6042C27.1281 22.6042 26.5717 22.8347 26.1615 23.2449C25.7512 23.6551 25.5208 24.2115 25.5208 24.7917C25.5208 25.3719 25.7512 25.9283 26.1615 26.3385C26.5717 26.7487 27.1281 26.9792 27.7083 26.9792ZM29.8958 13.8542H26.2499V17.5H32.7541L29.8958 13.8542ZM13.1249 26.9792C13.7051 26.9792 14.2615 26.7487 14.6717 26.3385C15.082 25.9283 15.3124 25.3719 15.3124 24.7917C15.3124 24.2115 15.082 23.6551 14.6717 23.2449C14.2615 22.8347 13.7051 22.6042 13.1249 22.6042C12.5448 22.6042 11.9884 22.8347 11.5781 23.2449C11.1679 23.6551 10.9374 24.2115 10.9374 24.7917C10.9374 25.3719 11.1679 25.9283 11.5781 26.3385C11.9884 26.7487 12.5448 26.9792 13.1249 26.9792Z" fill="#3ABBD1"/>
</g>
<defs>
<clipPath id="clip0_336_595">
<rect width="35" height="35" fill="white"/>
</clipPath>
</defs>
</svg>
