<svg width="35" height="35" viewBox="0 0 35 35" fill="none" xmlns="http://www.w3.org/2000/svg">
<path d="M25.612 31.441C25.3756 31.4409 25.1427 31.3835 24.9334 31.2736L17.5 27.3658L10.0666 31.2736C9.82577 31.4003 9.55427 31.4569 9.28285 31.4373C9.01144 31.4177 8.75092 31.3225 8.53076 31.1626C8.31059 31.0027 8.13956 30.7843 8.03699 30.5323C7.93443 30.2802 7.90442 30.0045 7.95036 29.7363L9.37023 21.4591L3.35675 15.5981C3.16194 15.4081 3.02416 15.1674 2.95898 14.9032C2.89379 14.639 2.9038 14.3618 2.98788 14.103C3.07195 13.8442 3.22674 13.6141 3.43474 13.4386C3.64275 13.2632 3.89568 13.1494 4.16496 13.1101L12.4756 11.9024L16.1919 4.37211C16.3262 4.14469 16.5175 3.95621 16.7469 3.82528C16.9763 3.69435 17.2359 3.62549 17.5 3.62549C17.7641 3.62549 18.0237 3.69435 18.2531 3.82528C18.4824 3.95621 18.6737 4.14469 18.8081 4.37211L22.5244 11.9023L30.835 13.11C31.1043 13.1492 31.3572 13.263 31.5653 13.4385C31.7733 13.6139 31.928 13.8441 32.0121 14.1029C32.0962 14.3617 32.1062 14.6388 32.041 14.903C31.9758 15.1672 31.838 15.4079 31.6432 15.5979L25.6298 21.459L27.0496 29.7361C27.0855 29.9455 27.0753 30.1602 27.0196 30.3651C26.9638 30.5701 26.864 30.7604 26.7271 30.9228C26.5902 31.0851 26.4194 31.2156 26.2268 31.3051C26.0342 31.3946 25.8243 31.441 25.6119 31.4409L25.612 31.441Z" fill="#3ABBD1"/>
</svg>
