<svg width="51" height="51" viewBox="0 0 51 51" fill="none" xmlns="http://www.w3.org/2000/svg">
<path d="M48.2551 11.724C48.5827 10.4789 48.2551 9.5625 46.679 9.5625H41.4639C40.1358 9.5625 39.5249 10.3494 39.1973 11.226C39.1973 11.226 36.541 18.5074 32.7868 23.2289C31.5738 24.5936 31.016 25.0318 30.3519 25.0318C30.0243 25.0318 29.5196 24.5936 29.5196 23.3484V11.724C29.5196 10.2299 29.1478 9.5625 28.0499 9.5625H19.8509C19.0186 9.5625 18.5228 10.2598 18.5228 10.9072C18.5228 12.3217 20.3999 12.6504 20.5946 16.6348V25.2809C20.5946 27.1734 20.2936 27.5221 19.6295 27.5221C17.8587 27.5221 13.5556 20.2107 11.0056 11.8436C10.492 10.2199 9.98735 9.5625 8.65037 9.5625H3.43527C1.94777 9.5625 1.64673 10.3494 1.64673 11.226C1.64673 12.7799 3.41756 20.4996 9.88996 30.6996C14.2019 37.6623 20.2759 41.4375 25.8009 41.4375C29.1212 41.4375 29.5285 40.6008 29.5285 39.1564C29.5285 32.5025 29.2275 31.875 30.892 31.875C31.6624 31.875 32.9905 32.3133 36.0894 35.6701C39.6311 39.6545 40.2155 41.4375 42.1988 41.4375H47.4139C48.9014 41.4375 49.654 40.6008 49.2202 38.9473C48.2285 35.4709 41.5259 28.3189 41.2249 27.8408C40.4545 26.7252 40.6759 26.2271 41.2249 25.2311C41.2337 25.2211 47.5999 15.1406 48.2551 11.724Z" fill="#3F3F46"/>
</svg>
